<svg width="203" height="28" viewBox="0 0 203 28" fill="none" xmlns="http://www.w3.org/2000/svg">
<path d="M0.907722 27L9.97972 0.179993H17.3957L26.4677 27H20.3837L18.5837 21.528H8.75572L6.95572 27H0.907722ZM10.3037 16.668H17.0357L12.9317 3.99599H14.4437L10.3037 16.668Z" fill="black"/>
<path d="M29.2549 27V0.179993H38.0029C40.9069 0.179993 43.4269 0.755993 45.5629 1.90799C47.6989 3.05999 49.3549 4.64399 50.5309 6.66C51.7069 8.67599 52.2949 10.98 52.2949 13.572C52.2949 16.164 51.7069 18.48 50.5309 20.52C49.3549 22.536 47.6989 24.12 45.5629 25.272C43.4269 26.424 40.9069 27 38.0029 27H29.2549ZM34.8349 22.14H38.1469C39.8989 22.14 41.4109 21.792 42.6829 21.096C43.9549 20.376 44.9389 19.38 45.6349 18.108C46.3549 16.812 46.7149 15.3 46.7149 13.572C46.7149 11.82 46.3549 10.308 45.6349 9.03599C44.9389 7.76399 43.9549 6.77999 42.6829 6.08399C41.4109 5.38799 39.8989 5.03999 38.1469 5.03999H34.8349V22.14Z" fill="black"/>
<path d="M64.9402 27.432C62.8522 27.432 61.0402 26.976 59.5042 26.064C57.9682 25.128 56.7802 23.88 55.9402 22.32C55.1002 20.76 54.6802 19.032 54.6802 17.136C54.6802 15.168 55.1122 13.416 55.9762 11.88C56.8642 10.344 58.0522 9.13199 59.5402 8.24399C61.0282 7.35599 62.7082 6.91199 64.5802 6.91199C66.1402 6.91199 67.5202 7.16399 68.7202 7.668C69.9202 8.14799 70.9282 8.83199 71.7442 9.71999C72.5842 10.608 73.2202 11.64 73.6522 12.816C74.0842 13.968 74.3002 15.228 74.3002 16.596C74.3002 16.98 74.2762 17.364 74.2282 17.748C74.2042 18.108 74.1442 18.42 74.0482 18.684H59.3242V14.724H70.9882L68.4322 16.596C68.6722 15.564 68.6602 14.652 68.3962 13.86C68.1322 13.044 67.6642 12.408 66.9922 11.952C66.3442 11.472 65.5402 11.232 64.5802 11.232C63.6442 11.232 62.8402 11.46 62.1682 11.916C61.4962 12.372 60.9922 13.044 60.6562 13.932C60.3202 14.82 60.1882 15.9 60.2602 17.172C60.1642 18.276 60.2962 19.248 60.6562 20.088C61.0162 20.928 61.5682 21.588 62.3122 22.068C63.0562 22.524 63.9562 22.752 65.0122 22.752C65.9722 22.752 66.7882 22.56 67.4602 22.176C68.1562 21.792 68.6962 21.264 69.0802 20.592L73.4002 22.644C73.0162 23.604 72.4042 24.444 71.5642 25.164C70.7482 25.884 69.7762 26.448 68.6482 26.856C67.5202 27.24 66.2842 27.432 64.9402 27.432Z" fill="black"/>
<path d="M85.184 27.432C83.024 27.432 81.14 26.928 79.532 25.92C77.948 24.888 76.868 23.508 76.292 21.78L80.252 19.908C80.756 20.964 81.44 21.792 82.304 22.392C83.168 22.992 84.128 23.292 85.184 23.292C85.952 23.292 86.54 23.136 86.948 22.824C87.356 22.512 87.56 22.08 87.56 21.528C87.56 21.24 87.488 21 87.344 20.808C87.2 20.592 86.984 20.4 86.696 20.232C86.408 20.064 86.048 19.92 85.616 19.8L82.268 18.864C80.66 18.408 79.424 17.676 78.56 16.668C77.696 15.636 77.264 14.424 77.264 13.032C77.264 11.808 77.576 10.74 78.2 9.82799C78.824 8.91599 79.7 8.20799 80.828 7.70399C81.956 7.17599 83.252 6.91199 84.716 6.91199C86.636 6.91199 88.316 7.36799 89.756 8.27999C91.22 9.16799 92.252 10.428 92.852 12.06L88.856 13.932C88.568 13.116 88.04 12.468 87.272 11.988C86.528 11.484 85.676 11.232 84.716 11.232C84.02 11.232 83.468 11.376 83.06 11.664C82.676 11.952 82.484 12.348 82.484 12.852C82.484 13.116 82.556 13.356 82.7 13.572C82.844 13.788 83.072 13.98 83.384 14.148C83.72 14.316 84.128 14.472 84.608 14.616L87.74 15.552C89.372 16.032 90.62 16.764 91.484 17.748C92.348 18.708 92.78 19.896 92.78 21.312C92.78 22.536 92.456 23.604 91.808 24.516C91.184 25.428 90.308 26.148 89.18 26.676C88.052 27.18 86.72 27.432 85.184 27.432Z" fill="black"/>
<path d="M100.84 27L94.0718 7.344H99.6518L104.404 21.528L102.46 21.492L107.752 7.344H112.432L117.688 21.492L115.744 21.528L120.496 7.344H126.112L119.308 27H114.628L109.156 11.808H111.028L105.52 27H100.84Z" fill="black"/>
<path d="M133.873 27.432C132.457 27.432 131.233 27.204 130.201 26.748C129.169 26.292 128.377 25.644 127.825 24.804C127.273 23.94 126.997 22.92 126.997 21.744C126.997 20.64 127.249 19.668 127.753 18.828C128.257 17.964 129.025 17.244 130.057 16.668C131.113 16.092 132.421 15.684 133.981 15.444L139.993 14.472V18.432L134.953 19.332C134.185 19.476 133.597 19.728 133.189 20.088C132.781 20.424 132.577 20.916 132.577 21.564C132.577 22.164 132.805 22.632 133.261 22.968C133.717 23.304 134.281 23.472 134.953 23.472C135.841 23.472 136.621 23.28 137.293 22.896C137.965 22.512 138.481 21.996 138.841 21.348C139.225 20.676 139.417 19.944 139.417 19.152V14.04C139.417 13.296 139.117 12.672 138.517 12.168C137.941 11.664 137.149 11.412 136.141 11.412C135.181 11.412 134.329 11.676 133.585 12.204C132.865 12.732 132.337 13.428 132.001 14.292L127.681 12.24C128.065 11.136 128.677 10.188 129.517 9.39599C130.357 8.60399 131.365 7.99199 132.541 7.55999C133.717 7.12799 135.001 6.91199 136.393 6.91199C138.049 6.91199 139.513 7.21199 140.785 7.81199C142.057 8.41199 143.041 9.25199 143.737 10.332C144.457 11.388 144.817 12.624 144.817 14.04V27H139.777V23.832L141.001 23.616C140.425 24.48 139.789 25.2 139.093 25.776C138.397 26.328 137.617 26.736 136.753 27C135.889 27.288 134.929 27.432 133.873 27.432Z" fill="black"/>
<path d="M148.777 27V7.344H158.101C159.901 7.344 161.449 7.65599 162.745 8.27999C164.041 8.90399 165.037 9.792 165.733 10.944C166.429 12.096 166.777 13.464 166.777 15.048V27H161.377V15.336C161.377 14.328 161.077 13.524 160.477 12.924C159.877 12.324 159.085 12.024 158.101 12.024H154.177V27H148.777Z" fill="black"/>
<path d="M179.796 27.216C177.42 27.216 175.572 26.58 174.252 25.308C172.956 24.012 172.308 22.212 172.308 19.908V12.024H168.996V7.344H169.176C170.184 7.344 170.952 7.092 171.48 6.58799C172.032 6.084 172.308 5.32799 172.308 4.31999V2.87999H177.708V7.344H182.316V12.024H177.708V19.548C177.708 20.22 177.828 20.784 178.068 21.24C178.308 21.672 178.68 21.996 179.184 22.212C179.688 22.428 180.312 22.536 181.056 22.536C181.224 22.536 181.416 22.524 181.632 22.5C181.848 22.476 182.076 22.452 182.316 22.428V27C181.956 27.048 181.548 27.096 181.092 27.144C180.636 27.192 180.204 27.216 179.796 27.216Z" fill="black"/>
<path d="M191.564 27.432C190.148 27.432 188.924 27.204 187.892 26.748C186.86 26.292 186.068 25.644 185.516 24.804C184.964 23.94 184.688 22.92 184.688 21.744C184.688 20.64 184.94 19.668 185.444 18.828C185.948 17.964 186.716 17.244 187.748 16.668C188.804 16.092 190.112 15.684 191.672 15.444L197.684 14.472V18.432L192.644 19.332C191.876 19.476 191.288 19.728 190.88 20.088C190.472 20.424 190.268 20.916 190.268 21.564C190.268 22.164 190.496 22.632 190.952 22.968C191.408 23.304 191.972 23.472 192.644 23.472C193.532 23.472 194.312 23.28 194.984 22.896C195.656 22.512 196.172 21.996 196.532 21.348C196.916 20.676 197.108 19.944 197.108 19.152V14.04C197.108 13.296 196.808 12.672 196.208 12.168C195.632 11.664 194.84 11.412 193.832 11.412C192.872 11.412 192.02 11.676 191.276 12.204C190.556 12.732 190.028 13.428 189.692 14.292L185.372 12.24C185.756 11.136 186.368 10.188 187.208 9.39599C188.048 8.60399 189.056 7.99199 190.232 7.55999C191.408 7.12799 192.692 6.91199 194.084 6.91199C195.74 6.91199 197.204 7.21199 198.476 7.81199C199.748 8.41199 200.732 9.25199 201.428 10.332C202.148 11.388 202.508 12.624 202.508 14.04V27H197.468V23.832L198.692 23.616C198.116 24.48 197.48 25.2 196.784 25.776C196.088 26.328 195.308 26.736 194.444 27C193.58 27.288 192.62 27.432 191.564 27.432Z" fill="black"/>
</svg>
